# xmcd
#
# Track frame offsets:
#	150
#	14376
#	27010
#	38647
#	50521
#	70594
#	80437
#	92120
#	101078
#	112319
#	126084
#	139939
#
# Disc length: 2023 seconds
# Revision: 1
# Processed by: cddbd v1.5.2PL0 Copyright (c) Steve Scherf et al.
# Submitted via: dBpowerAMP V12.0
#
DISCID=9e07e50c
DTITLE=Carolina Road - Back to My Roots
DYEAR=2011
DGENRE=Country
TTITLE0=Back To My Roots
TTITLE1=A Light In the Window, Again
TTITLE2=The Hills of Home
TTITLE3=I'll Be Over You
TTITLE4=Granny's Garden
TTITLE5=Sharecropper's Son
TTITLE6=I Know You're Married But I Love You Still
TTITLE7=What It Means To Be Lonesome
TTITLE8=Lee Berry Rye
TTITLE9=Cold Carolina Snow
TTITLE10=Bald Knob Arkansas
TTITLE11=Sing a Bluegrass Song
EXTD=
EXTT0=
EXTT1=
EXTT2=
EXTT3=
EXTT4=
EXTT5=
EXTT6=
EXTT7=
EXTT8=
EXTT9=
EXTT10=
EXTT11=
PLAYORDER=
